HIERARCHY
ROOT Hips
{
	OFFSET 0.000000 0.000000 0.000000
	CHANNELS 6 Xposition Yposition Zposition Xrotation Yrotation Zrotation
	JOINT LeftUpLeg_virtual
	{
		OFFSET 0.000000 0.000000 0.000000
		CHANNELS 3 Xrotation Yrotation Zrotation
		JOINT LeftUpLeg
		{
			OFFSET 15.427100 -6.655098 0.678600
			CHANNELS 3 Xrotation Yrotation Zrotation
			JOINT LeftLeg
			{
				OFFSET 4.081073 -39.591068 13.024000
				CHANNELS 3 Xrotation Yrotation Zrotation
				JOINT LeftFoot
				{
					OFFSET -4.081074 -37.707932 -15.979700
					CHANNELS 3 Xrotation Yrotation Zrotation
					JOINT LeftToeBase
					{
						OFFSET 5.346399 -15.068900 20.645000
						CHANNELS 3 Xrotation Yrotation Zrotation
						JOINT LeftToe_End
						{
							OFFSET 2.754700 0.931300 11.300900
							CHANNELS 3 Xrotation Yrotation Zrotation
							End Site
							{
								OFFSET 0 0 0
							}
						}
					}
				}
			}
		}
	}
	JOINT RightUpLeg_virtual
	{
		OFFSET 0.000000 0.000000 0.000000
		CHANNELS 3 Xrotation Yrotation Zrotation
		JOINT RightUpLeg
		{
			OFFSET -15.569500 -6.655098 0.678600
			CHANNELS 3 Xrotation Yrotation Zrotation
			JOINT RightLeg
			{
				OFFSET -4.081825 -39.591045 13.023800
				CHANNELS 3 Xrotation Yrotation Zrotation
				JOINT RightFoot
				{
					OFFSET 4.081824 -37.707954 -15.979600
					CHANNELS 3 Xrotation Yrotation Zrotation
					JOINT RightToeBase
					{
						OFFSET -5.346400 -15.068900 20.645000
						CHANNELS 3 Xrotation Yrotation Zrotation
						JOINT RightToe_End
						{
							OFFSET -2.754700 0.931300 11.300900
							CHANNELS 3 Xrotation Yrotation Zrotation
							End Site
							{
								OFFSET 0 0 0
							}
						}
					}
				}
			}
		}
	}
	JOINT Spine_virtual
	{
		OFFSET 0.000000 0.000000 0.000000
		CHANNELS 3 Xrotation Yrotation Zrotation
		JOINT Spine
		{
			OFFSET -0.279200 12.230698 -2.892100
			CHANNELS 3 Xrotation Yrotation Zrotation
			JOINT Spine1
			{
				OFFSET -0.232667 10.192268 -1.242267
				CHANNELS 3 Xrotation Yrotation Zrotation
				JOINT Spine1_split
				{
					OFFSET -0.232667 10.192268 -1.242267
					CHANNELS 3 Xrotation Yrotation Zrotation
					JOINT Spine2
					{
						OFFSET -0.232667 10.192268 -1.242267
						CHANNELS 3 Xrotation Yrotation Zrotation
						JOINT Neck_virtual
						{
							OFFSET 0.000000 0.000000 0.000000
							CHANNELS 3 Xrotation Yrotation Zrotation
							JOINT Neck
							{
								OFFSET -0.418800 17.814194 8.416900
								CHANNELS 3 Xrotation Yrotation Zrotation
								JOINT Head
								{
									OFFSET 0.000000 7.031097 3.806800
									CHANNELS 3 Xrotation Yrotation Zrotation
									JOINT HeadTop_End
									{
										OFFSET 0.000000 24.646606 12.978600
										CHANNELS 3 Xrotation Yrotation Zrotation
										End Site
										{
											OFFSET 0 0 0
										}
									}
								}
							}
						}
						JOINT LeftShoulder_virtual
						{
							OFFSET 0.000000 0.000000 0.000000
							CHANNELS 3 Xrotation Yrotation Zrotation
							JOINT LeftShoulder
							{
								OFFSET 8.476499 7.247704 -3.868750
								CHANNELS 3 Xrotation Yrotation Zrotation
								JOINT LeftShoulder_split
								{
									OFFSET 8.476499 7.247704 -3.868750
									CHANNELS 3 Xrotation Yrotation Zrotation
									JOINT LeftArm
									{
										OFFSET 9.308998 -2.777710 0.208600
										CHANNELS 3 Xrotation Yrotation Zrotation
										JOINT LeftForeArm
										{
											OFFSET 29.972298 0.000000 0.000000
											CHANNELS 3 Xrotation Yrotation Zrotation
											JOINT LeftHand
											{
												OFFSET 26.026505 0.000000 0.000000
												CHANNELS 3 Xrotation Yrotation Zrotation
												End Site
												{
													OFFSET 0 0 0
												}
											}
										}
									}
								}
							}
						}
						JOINT RightShoulder_virtual
						{
							OFFSET 0.000000 0.000000 0.000000
							CHANNELS 3 Xrotation Yrotation Zrotation
							JOINT RightShoulder
							{
								OFFSET -7.570500 7.247704 -3.868750
								CHANNELS 3 Xrotation Yrotation Zrotation
								JOINT RightShoulder_split
								{
									OFFSET -7.570500 7.247704 -3.868750
									CHANNELS 3 Xrotation Yrotation Zrotation
									JOINT RightArm
									{
										OFFSET -9.308998 -2.777710 0.208500
										CHANNELS 3 Xrotation Yrotation Zrotation
										JOINT RightForeArm
										{
											OFFSET -29.972300 0.000000 0.000000
											CHANNELS 3 Xrotation Yrotation Zrotation
											JOINT RightHand
											{
												OFFSET -26.026505 0.000000 0.000000
												CHANNELS 3 Xrotation Yrotation Zrotation
												End Site
												{
													OFFSET 0 0 0
												}
											}
										}
									}
								}
							}
						}
					}
				}
			}
		}
	}
}
MOTION
Frames: 9
Frame Time: 0.03333333
0.320280 81.036339 38.086975 0.000000 0.000000 0.000000 29.563719 0.982759 -9.776656 -85.142256 1.212940 18.531066 50.761013 4.673777 -8.333439 10.033962 -3.050710 11.808017 -1.570440 1.434483 3.943517 0.000000 0.000000 0.000000 30.841658 2.733097 -11.295973 -7.246621 -32.136750 -23.668897 65.232145 24.104439 1.630971 9.225337 -34.451457 13.154585 -7.899299 8.180310 3.550700 0.000000 0.000000 0.000000 30.925840 9.106558 -14.552567 5.058575 7.222750 -12.803763 11.692685 9.537525 -4.872023 0.210343 0.247990 0.063478 0.000000 0.000000 0.000000 15.764772 10.594119 -5.602009 -17.852327 0.276461 13.185089 -33.813599 -35.906390 11.764437 0.000000 0.000000 0.000000 12.369704 9.883920 -5.467352 0.127771 3.852441 -1.408087 5.947750 0.350068 -0.233854 7.967710 -40.595858 -31.651230 -14.612189 -30.311690 -7.211083 0.000000 0.000000 0.000000 14.027224 9.796400 -4.747392 -3.037907 13.454531 -12.990087 -1.374259 -0.210262 0.646568 -38.643516 61.673309 62.707530 -16.975004 27.021922 0.686712 0.000000 0.000000 0.000000 
0.122461 80.430161 39.519291 0.000000 0.000000 0.000000 27.701608 2.706806 -9.475092 -83.054390 1.997533 17.534892 51.703200 5.295432 -7.930674 7.182029 -2.780585 11.168464 -1.077793 1.269508 3.839177 0.000000 0.000000 0.000000 28.999450 3.945018 -10.871441 -9.779846 -30.183781 -22.660799 62.684457 24.417523 0.815517 7.169766 -32.588496 11.729358 -8.817357 8.446101 -0.241144 0.000000 0.000000 0.000000 29.018800 10.121668 -14.244925 5.120809 4.766713 -13.300284 11.242576 8.534427 -4.523330 0.160858 0.322749 0.020031 0.000000 0.000000 0.000000 15.219562 9.595367 -5.205265 -17.259999 0.645369 12.044374 -34.100601 -31.787625 13.300674 0.000000 0.000000 0.000000 11.661146 8.947282 -5.151476 0.023742 5.543159 -1.148102 6.400464 -0.752130 -0.549658 7.873341 -44.973889 -22.636700 -14.173509 -28.463082 -6.223705 0.000000 0.000000 0.000000 13.523369 8.848820 -4.366193 -3.058766 12.994317 -13.072205 -1.630647 0.306717 0.999469 -32.639541 58.858943 52.996387 -15.507191 26.044894 -2.775463 0.000000 0.000000 0.000000 
0.124104 80.154121 41.067776 0.000000 0.000000 0.000000 25.858978 3.914346 -9.264604 -80.373595 2.743947 16.081187 52.185435 6.000833 -7.213110 4.378470 -2.380259 10.568073 -0.243834 1.119466 3.341068 0.000000 0.000000 0.000000 26.967484 5.024098 -10.687242 -11.677074 -28.259214 -21.172439 59.845592 24.472641 0.077234 5.529230 -30.439366 10.023900 -11.433335 8.385702 -2.400706 0.000000 0.000000 0.000000 27.024330 10.821508 -14.019944 5.118000 2.537979 -13.548296 10.933786 7.284778 -4.407568 0.113350 0.341056 -0.009797 0.000000 0.000000 0.000000 14.888026 8.341898 -5.062665 -16.527504 1.230148 10.680665 -33.794512 -27.412896 15.329187 0.000000 0.000000 0.000000 11.263942 7.712018 -5.050470 -0.105974 7.040047 -0.571165 7.034965 -1.671152 -0.728426 5.829115 -49.336120 -14.854753 -13.901581 -26.160506 -5.756683 0.000000 0.000000 0.000000 13.351180 7.635993 -4.242213 -2.735079 12.781796 -13.872853 -2.111455 0.506890 0.960636 -28.172804 55.941503 44.981351 -14.559016 25.043614 -5.619031 0.000000 0.000000 0.000000 
0.252786 80.272423 42.639648 0.000000 0.000000 0.000000 23.982459 4.679086 -9.308813 -77.089695 3.358968 14.575014 52.462055 6.664966 -6.228712 1.909650 -1.910929 10.097530 0.551576 0.978668 2.490453 0.000000 0.000000 0.000000 24.748425 5.924324 -10.723604 -13.422561 -26.600192 -19.781857 56.686137 24.471851 -0.610151 5.144686 -27.832097 8.983355 -15.388809 8.105509 -3.289950 0.000000 0.000000 0.000000 24.920775 11.288188 -13.972857 5.079690 0.471662 -13.503682 10.800439 5.783751 -4.498028 0.123262 0.297990 -0.014089 0.000000 0.000000 0.000000 14.730264 6.832609 -5.138499 -15.591742 1.997933 9.168599 -32.811785 -22.719117 17.771645 0.000000 0.000000 0.000000 11.243921 6.182373 -5.136014 -0.260500 8.084350 0.300211 7.518572 -2.352842 -0.968365 1.275925 -53.187824 -9.310662 -13.608768 -23.291910 -5.627777 0.000000 0.000000 0.000000 13.472070 6.124004 -4.329057 -2.112612 12.766877 -15.394580 -2.559903 0.606312 0.641171 -24.728220 52.896332 38.010740 -14.307978 24.516021 -7.541061 0.000000 0.000000 0.000000 
0.428010 80.737564 44.235466 0.000000 0.000000 0.000000 22.134237 5.058533 -9.690079 -73.483642 3.939846 13.494428 52.705868 7.268843 -5.083662 -0.212899 -1.524015 9.854349 1.146837 0.839209 1.412374 0.000000 0.000000 0.000000 22.557745 6.655062 -11.061711 -14.742330 -25.418544 -18.256349 52.422009 24.173163 -1.300866 4.750278 -24.968426 8.360545 -19.724220 7.835741 -3.905627 0.000000 0.000000 0.000000 22.642420 11.538931 -14.180683 5.072761 -1.482335 -13.114516 10.810303 4.092313 -4.704576 0.158025 0.245637 0.001879 0.000000 0.000000 0.000000 14.650143 5.126884 -5.331223 -14.401816 2.876789 7.611093 -31.329784 -17.786617 20.421907 0.000000 0.000000 0.000000 11.570258 4.411436 -5.271608 -0.425371 8.519346 1.441256 7.796955 -2.742006 -1.122169 -5.812478 -56.029695 -6.730706 -13.137468 -20.162483 -5.636449 0.000000 0.000000 0.000000 13.813504 4.377564 -4.532132 -1.284230 12.842572 -17.431753 -2.678611 0.844972 0.322786 -22.658671 49.886028 32.102224 -14.820349 24.730298 -8.332891 0.000000 0.000000 0.000000 
0.656238 81.402039 45.739197 0.000000 0.000000 0.000000 20.326735 5.053654 -10.478447 -69.876319 4.623422 13.180400 52.915781 7.705077 -3.856024 -1.925707 -1.334697 9.764496 1.476826 0.697388 0.305068 0.000000 0.000000 0.000000 20.523783 7.060863 -11.740124 -15.476165 -24.780720 -16.423743 46.663777 23.573332 -1.844447 3.562069 -22.032621 8.033259 -23.298779 7.795114 -4.990835 0.000000 0.000000 0.000000 20.263344 11.486218 -14.636067 5.098116 -3.394566 -12.388399 10.943442 2.284031 -4.886600 0.194035 0.203640 0.025217 0.000000 0.000000 0.000000 14.584057 3.302706 -5.476185 -13.039870 3.770568 6.126888 -29.611920 -12.650444 23.006574 0.000000 0.000000 0.000000 12.100441 2.505302 -5.298319 -0.561598 8.386874 2.777720 7.548316 -3.018672 -1.404220 -14.888853 -57.685483 -7.039067 -12.307257 -17.194014 -5.669908 0.000000 0.000000 0.000000 14.190766 2.480177 -4.689251 -0.388172 13.040591 -19.647896 -2.422352 1.079256 0.122506 -23.185163 47.126017 27.992566 -16.134804 25.461876 -7.918596 0.000000 0.000000 0.000000 
0.901217 82.247887 47.167572 0.000000 0.000000 0.000000 18.449205 4.494340 -11.587138 -66.469823 5.593970 13.753945 52.993399 7.793043 -2.551355 -3.357744 -1.503441 9.580009 1.557523 0.546373 -0.600131 0.000000 0.000000 0.000000 18.675943 7.060711 -12.764332 -15.966243 -24.677142 -14.577393 40.091602 22.866404 -2.202920 1.980302 -19.164978 8.512164 -23.572299 7.995232 -6.799581 0.000000 0.000000 0.000000 17.894993 11.034654 -15.322657 5.128988 -5.222196 -11.365249 11.117921 0.462892 -4.942586 0.224259 0.185109 0.044438 0.000000 0.000000 0.000000 14.477569 1.469567 -5.461336 -11.642771 4.617463 4.827654 -27.930838 -7.436024 25.288591 0.000000 0.000000 0.000000 12.703189 0.600203 -5.099360 -0.625476 7.795087 4.205919 7.118252 -3.123834 -1.540946 -24.643572 -58.233271 -9.409403 -11.087535 -14.848454 -5.670990 0.000000 0.000000 0.000000 14.470026 0.552294 -4.672044 0.326544 13.249046 -21.530167 -1.728730 1.477168 0.273710 -27.033870 44.605623 26.248917 -18.254522 26.539523 -6.308492 0.000000 0.000000 0.000000 
1.198169 83.296814 48.385067 0.000000 0.000000 0.000000 16.601581 3.506545 -12.902050 -63.347559 6.942825 15.025448 52.816234 7.585314 -1.120772 -4.642739 -1.979659 9.200283 1.648732 0.372261 -1.187672 0.000000 0.000000 0.000000 16.806792 6.513501 -14.016242 -16.951143 -24.885559 -13.122439 33.600566 22.095722 -2.336991 1.220379 -16.512554 10.302330 -19.992196 8.245282 -9.333887 0.000000 0.000000 0.000000 15.724074 10.147466 -16.182805 5.150296 -6.904135 -10.085004 11.261575 -1.265369 -4.826850 0.244777 0.184517 0.040637 0.000000 0.000000 0.000000 14.319456 -0.251887 -5.235588 -10.384298 5.394538 3.766256 -26.597925 -2.460456 27.032350 0.000000 0.000000 0.000000 13.230832 -1.172381 -4.663367 -0.588073 6.926911 5.612978 6.722458 -3.327130 -1.397789 -33.867309 -58.127601 -12.817219 -9.577352 -13.347057 -5.705283 0.000000 0.000000 0.000000 14.580634 -1.261352 -4.447549 0.785248 13.457072 -22.739083 -0.961446 1.561877 0.880037 -34.496048 41.918384 27.293110 -21.146983 27.499469 -3.590885 0.000000 0.000000 0.000000 
1.501331 84.545029 49.413063 0.000000 0.000000 0.000000 14.887140 2.175198 -14.351076 -60.499685 8.624979 16.703697 52.187928 7.110732 0.479707 -5.848592 -2.611683 8.487831 1.898988 0.159250 -1.452900 0.000000 0.000000 0.000000 15.015433 5.501549 -15.352676 -18.721448 -25.017460 -12.222257 27.529112 21.520924 -2.094900 1.748456 -13.907469 13.790896 -15.524916 8.418586 -12.230045 0.000000 0.000000 0.000000 13.925868 8.890132 -17.178411 5.133414 -8.325476 -8.551031 11.338935 -2.801975 -4.555453 0.257534 0.190322 0.013744 0.000000 0.000000 0.000000 14.136561 -1.772369 -4.806205 -9.488142 6.096609 2.957325 -25.705746 2.066532 28.120929 0.000000 0.000000 0.000000 13.585864 -2.715013 -4.090697 -0.452549 5.980456 6.903956 6.284754 -3.524428 -1.093681 -42.025963 -57.840931 -16.575522 -7.973628 -12.625559 -5.812703 0.000000 0.000000 0.000000 14.495227 -2.860301 -4.052779 0.923880 13.711814 -23.041619 -0.426648 1.301750 1.447203 -44.781869 38.187099 30.759221 -24.616584 28.021399 -0.042514 0.000000 0.000000 0.000000 
